<svg xmlns="http://www.w3.org/2000/svg" viewBox="0 0 24 24" version="1.1" id="Chevron-Left--Streamline-Lucide">
	<path d="M14.740416 5.029488000000001C14.670264 5.048376 14.562263999999999 5.0924640000000005 14.500416 5.1274560000000005C14.426304 5.169408 13.328351999999999 6.25104 11.278464 8.301552000000001C7.886496 11.694504 8.068296 11.497608 8.009328 11.841887999999999C7.989216000000001 11.959296 7.989216000000001 12.040704000000002 8.009328 12.158112000000001C8.068344 12.502608 7.885007999999999 12.304176 11.290416 15.709584000000001C14.695775999999999 19.11492 14.497536 18.931848 14.840592 18.988680000000002C15.507167999999998 19.099128 16.099128 18.507168 15.988680000000002 17.840591999999997C15.93228 17.500296 16.074144 17.655816 13.129848 14.706L10.428912 12 13.129848 9.294C16.074144 6.344184 15.93228 6.499704 15.988680000000002 6.159408C16.10628 5.449728 15.435408000000002 4.842456 14.740416 5.029488000000001" stroke="none" fill="currentColor" fill-rule="evenodd"></path>
</svg>
