<svg xmlns="http://www.w3.org/2000/svg" viewBox="0 0 24 24" version="1.1" id="Chevron-Right--Streamline-Lucide">
	<path d="M8.740416000000002 5.029488000000001C8.252640000000001 5.160768 7.925112 5.666376 8.009328 6.158112000000001C8.067864 6.499848 7.925928000000001 6.344256 10.870152000000001 9.294L13.571088 12 10.870152000000001 14.706C7.925928000000001 17.655744 8.067864 17.500152 8.009328 17.841888C7.896216000000001 18.502224000000002 8.49456 19.09884 9.159408 18.988680000000002C9.502464 18.931848 9.304224 19.11492 12.709584000000001 15.709584000000001C16.11492 12.304224000000001 15.931848 12.502464000000002 15.988680000000002 12.159408C16.007904 12.043416 16.007904 11.956584 15.988680000000002 11.840592000000001C15.931872 11.497752 16.113456 11.694431999999999 12.721535999999999 8.301552000000001C10.681992000000001 6.261408 9.573528 5.169312000000001 9.50016 5.127816C9.272112 4.998744 8.990232 4.962264 8.740416000000002 5.029488000000001" stroke="none" fill="currentColor" fill-rule="evenodd"></path>
</svg>
