<svg xmlns="http://www.w3.org/2000/svg" viewBox="0 0 24 24" version="1.1" id="Wifi-Off--Streamline-Lucide">
	<path d="M1.704 1.039968C1.378608 1.152336 1.12236 1.417248 1.0340880000000001 1.7325599999999999C0.9818399999999999 1.919136 1.008144 2.238864 1.090968 2.424C1.1562240000000001 2.569872 1.2676319999999999 2.687208 2.806368 4.230888C4.117344 5.5460400000000005 4.44468 5.8865039999999995 4.416 5.905128C4.3962 5.917992 4.288200000000001 5.97888 4.176 6.04044C3.718536 6.2914319999999995 3.072864 6.705864 2.58 7.064832C2.097912 7.415976000000001 1.443144 7.952016 1.275288 8.132976000000001C1.067568 8.356944 0.996216 8.563872 1.013424 8.892528C1.023384 9.08328 1.035528 9.132071999999999 1.106232 9.265968C1.210536 9.463536000000001 1.375512 9.625055999999999 1.571472 9.721536C1.699416 9.784512 1.7639520000000002 9.800088 1.9386720000000002 9.810048C2.306688 9.831024 2.42388 9.776928 2.9122559999999997 9.360504C3.734112 8.659728 4.676328000000001 8.02812 5.602104 7.557384000000001L5.950944 7.38 7.090631999999999 8.519064L8.230296 9.658104 7.9131599999999995 9.785064C7.534824 9.936528 6.867384 10.260528 6.509664 10.466376C5.478696 11.05968 4.2988800000000005 12.020280000000001 4.096920000000001 12.430895999999999C4.0238640000000006 12.57936 4.0200000000000005 12.601128000000001 4.0200000000000005 12.863616C4.0200000000000005 13.122912000000001 4.024464 13.148856 4.0920000000000005 13.283112C4.2432479999999995 13.583736000000002 4.547544 13.809312 4.852656 13.847015999999998C5.21952 13.892351999999999 5.463816 13.794096000000001 5.832 13.45308C6.684576 12.663408000000002 7.6184639999999995 12.068783999999999 8.659416 11.652840000000001C9.012768 11.511624000000001 9.619248 11.31324 9.768 11.290175999999999C9.851592 11.277216000000001 9.858744 11.283912 11.213928000000001 12.640584L12.575856000000002 14.004 12.017928000000001 14.005824C11.395104 14.007888000000001 11.024016 14.051687999999999 10.504464 14.184503999999999C9.522456 14.435568 8.515032 14.999184 7.848 15.670776C7.639224 15.880968 7.546248 16.04904 7.515408 16.272000000000002C7.45236 16.727496000000002 7.67256 17.14152 8.08044 17.334408000000003C8.216664 17.398824 8.278368 17.413152 8.449632 17.420112C8.7978 17.434224 8.963376 17.359992 9.348 17.017295999999998C10.853328 15.676104000000002 13.146672 15.676104000000002 14.652000000000001 17.017295999999998C14.899608 17.237928 15.054839999999999 17.341896 15.204 17.387112C15.363 17.435304000000002 15.657432000000002 17.434224 15.802104000000002 17.384928L15.916775999999999 17.345856 18.668400000000002 20.0928C21.274728 22.694736000000002 21.428232 22.843416 21.576 22.909272C21.70044 22.964736000000002 21.77496 22.980648000000002 21.944304 22.987872C22.270896 23.00184 22.48896 22.920648 22.704816 22.704816C22.920288 22.489344000000003 23.001576 22.271256 22.988352 21.944304C22.981104000000002 21.765048 22.967472 21.70584 22.900872 21.564C22.82436 21.401064 22.517208 21.091224 12.712992 11.287008C2.913672 1.4876639999999999 2.5988640000000003 1.175592 2.436 1.099008C2.284584 1.0278 2.244288 1.019544 2.028 1.015464C1.8902400000000001 1.012872 1.752216 1.023312 1.704 1.039968M11.088000000000001 4.022664C10.484832 4.073544 10.429848 4.0824 10.28412 4.151952C10.100856 4.239408 9.886536000000001 4.45824 9.797016000000001 4.649256C9.738024 4.7751600000000005 9.732048 4.81356 9.732456 5.064C9.732864000000001 5.319624 9.738072 5.350632 9.802968 5.484C9.934776000000001 5.75484 10.258728 6.00336 10.528128 6.0402960000000006C10.589447999999999 6.048696 10.959192 6.041112 11.349816 6.023424C13.241256000000002 5.937792 14.995199999999999 6.205656 16.776 6.85212C18.369912 7.430712 19.789344 8.256504000000001 21.082632 9.357576C21.574248 9.776136000000001 21.693024 9.831048000000001 22.061328 9.810048C22.236048 9.800088 22.300584 9.784512 22.428528 9.721536C22.624488 9.625055999999999 22.789464000000002 9.463536000000001 22.893768 9.265968C22.964472 9.132071999999999 22.976616 9.08328 22.986576 8.892528C23.00376 8.564016 22.932864 8.358216 22.724712 8.132472C22.507752 7.897200000000001 21.599424 7.1786639999999995 21.024 6.787128000000001C18.791808 5.268288 16.366344 4.381728 13.608 4.076376C13.248552 4.036584 12.976632 4.025928 12.18 4.020384C11.6388 4.016640000000001 11.147400000000001 4.017672 11.088000000000001 4.022664M16.840248000000003 10.346664C16.318512 10.421520000000001 15.925416 10.940784 15.99996 11.456616C16.053672000000002 11.828327999999999 16.223616 12.045143999999999 16.67988 12.324C17.215968 12.651672000000001 17.606064 12.94752 18.132 13.425312000000002C18.449016 13.713312000000002 18.624192 13.815096 18.857424 13.846848C19.253088 13.900728 19.613592 13.73748 19.834775999999998 13.404264C19.960104 13.215456 19.998 13.067496000000002 19.988184 12.805176C19.976568 12.49524 19.900008 12.346488 19.603056 12.056832C19.029336 11.497248 18.47388 11.06736 17.743632 10.617744C17.326512 10.36092 17.137032 10.304064 16.840248000000003 10.346664M11.6712 19.051632C11.111928 19.249632 10.841592 19.909968 11.101944000000001 20.44212C11.189904 20.62188 11.395631999999999 20.821248 11.58432 20.909544C11.870904 21.043656 12.252096 21.02484 12.512856000000001 20.863752C12.857064000000001 20.651064 13.026528 20.325528000000002 13.003152 19.921848C12.982848 19.570776 12.762096000000001 19.250352 12.433224000000001 19.09452C12.294768000000001 19.028904 12.247344 19.019256000000002 12.036 19.013712C11.8518 19.008912000000002 11.766984 19.01772 11.6712 19.051632" stroke="none" fill="currentColor" fill-rule="evenodd"></path>
</svg>
