<svg xmlns="http://www.w3.org/2000/svg" viewBox="0 0 24 24" version="1.1" id="Wifi--Streamline-Lucide">
	<path d="M10.896 4.034784C7.418232000000001 4.287 4.2035279999999995 5.60832 1.56612 7.869599999999999C1.104984 8.264976 0.992832 8.469768 1.012488 8.880696C1.020912 9.056712000000001 1.035024 9.115536 1.101096 9.249744C1.2006 9.451872 1.370832 9.622752 1.570632 9.721128C1.6995120000000001 9.78456 1.7633999999999999 9.799992000000001 1.937352 9.809688000000001C2.304888 9.83016 2.432544 9.771647999999999 2.9055359999999997 9.366C6.345936 6.41532 11.016168 5.321328 15.432 6.431664C17.510208 6.9542399999999995 19.461288 7.965288 21.094464000000002 9.366C21.567456 9.771647999999999 21.695111999999998 9.83016 22.062648000000003 9.809688000000001C22.23516 9.800088 22.300776 9.784416 22.425192000000003 9.723168000000001C22.6242 9.625200000000001 22.801176 9.448248000000001 22.899096 9.249336C22.964952 9.115584 22.979112 9.056568 22.987512 8.880696C23.007168 8.469768 22.895016 8.264976 22.433880000000002 7.869599999999999C20.912616 6.565295999999999 19.20492 5.57484 17.341632 4.916112C15.947904 4.423392 14.574264 4.140816 13.044 4.032071999999999C12.650927999999999 4.004136 11.294952 4.00584 10.896 4.034784M11.196 9.02592C9.250608 9.181632 7.4694 9.794616 5.88 10.85532C5.393184000000001 11.180232 4.7924880000000005 11.665175999999999 4.40892 12.042984C4.100376 12.346872 4.0260240000000005 12.489168 4.012344000000001 12.801888000000002C4.0008 13.065528000000002 4.038600000000001 13.213512 4.166832 13.406687999999999C4.381704 13.730400000000001 4.739016 13.893024 5.133288 13.846535999999999C5.365008 13.819199999999999 5.548008 13.71612 5.832 13.45296C7.455552000000001 11.948447999999999 9.46728 11.099472 11.599176 11.019192C14.09208 10.925304 16.327752 11.753304 18.168 13.452048C18.512472 13.770024 18.67476 13.84944 18.984768000000003 13.851672C19.373784 13.854456 19.685616 13.671000000000001 19.888512 13.32C20.017368 13.097088 20.028408000000002 12.698952000000002 19.91268 12.447047999999999C19.746408000000002 12.085032 18.689016 11.194128000000001 17.724 10.602984C16.424184 9.806735999999999 14.8662 9.26256 13.379112 9.085416C12.665952 9.000456 11.80668 8.977056 11.196 9.02592M11.58 14.007096C10.185216 14.122944 8.978159999999999 14.645712000000001 7.929 15.58836C7.624608 15.861839999999999 7.505159999999999 16.103352 7.507752 16.44C7.50948 16.662312 7.551048000000001 16.802232 7.667544 16.977719999999998C7.850232000000001 17.252976 8.115768 17.403192 8.448192 17.419368000000002C8.788368 17.435928 8.967576 17.357952 9.323712 17.038392C10.858872 15.660863999999998 13.141128 15.660863999999998 14.676288 17.038392C15.032424 17.357952 15.211632 17.435928 15.551808 17.419368000000002C15.884231999999999 17.403192 16.149768 17.252976 16.332456 16.977719999999998C16.448952000000002 16.802232 16.49052 16.662312 16.492248 16.44C16.495416 16.0296 16.336152000000002 15.785088 15.76788 15.328008C14.91792 14.644344000000002 13.899000000000001 14.203968 12.816 14.05224C12.544535999999999 14.014199999999999 11.8152 13.987560000000002 11.58 14.007096M11.676 19.05132C11.112936 19.248672 10.840704 19.908192 11.101944000000001 20.44212C11.177496 20.596536 11.382624 20.809872 11.526072 20.883216C12.313416 21.285743999999998 13.19964 20.582040000000003 12.9738 19.733664C12.902616000000002 19.466256 12.693959999999999 19.220184 12.432 19.094712C12.293520000000001 19.0284 12.249048 19.0194 12.036 19.014623999999998C11.857848 19.010640000000002 11.765088 19.020096000000002 11.676 19.05132" stroke="none" fill="currentColor" fill-rule="evenodd"></path>
</svg>
