<svg xmlns="http://www.w3.org/2000/svg" viewBox="0 0 24 24" version="1.1" id="Volume-2--Streamline-Lucide">
	<path d="M18.774863999999997 3.9695039999999997C18.549 4.04304 18.320544 4.226976 18.200352 4.432032C18.025199999999998 4.7309280000000005 18.03372 5.166 18.220464 5.46C18.254016 5.5127999999999995 18.402816 5.6856 18.55116 5.844C19.4706 6.825816 20.136984 7.94724 20.547768 9.204C21.196392 11.188488000000001 21.131448 13.352064 20.364384 15.312000000000001C20.227128 15.662688 19.898256 16.321800000000003 19.687776 16.668C19.358352 17.2098 19.009296 17.666784 18.55116 18.156C18.244032 18.48396 18.177264 18.579048 18.115752 18.776136C17.968032 19.249368 18.189648000000002 19.750056 18.646344000000003 19.974888C18.793992 20.04756 18.818208 20.052 19.067496000000002 20.052C19.315632 20.052 19.342104000000003 20.047224 19.495176 19.97472C19.614312 19.918272 19.708224 19.846944 19.843176 19.710312000000002C21.399144 18.135192 22.46124 16.07088 22.834656 13.896C22.959552000000002 13.168584000000001 22.979256000000003 12.910248000000001 22.979256000000003 12C22.979256000000003 11.089751999999999 22.959552000000002 10.831416 22.834656 10.104000000000001C22.46124 7.92912 21.399144 5.864808 19.843176 4.289688C19.587432 4.030776 19.419408 3.951984 19.104 3.943032C18.958896 3.9389040000000004 18.839232 3.948528 18.774863999999997 3.9695039999999997M10.686888 4.05144C10.61808 4.075968 10.50468 4.1342159999999994 10.434887999999999 4.180896000000001C10.365096000000001 4.227576 9.2604 5.104176 7.98 6.1288800000000005L5.652 7.991976000000001 3.8160000000000003 7.99212C2.766432 7.992216000000001 1.920168 8.002080000000001 1.8402960000000002 8.01516C1.4710800000000002 8.075616 1.150392 8.35236 1.044312 8.702016C0.99036 8.879832 0.99036 15.120168 1.044312 15.297984000000001C1.150392 15.64764 1.4710800000000002 15.924384 1.8402960000000002 15.98484C1.920144 15.99792 2.766696 16.007808 3.8160000000000003 16.007928L5.652 16.00812 8.052 17.927952C9.422688 19.024416 10.508616 19.876152 10.584 19.91388C10.705128 19.974528000000003 10.738776 19.979952 10.992552000000002 19.979976C11.256648 19.98 11.276280000000002 19.976448 11.42916 19.901184C11.674824000000001 19.780224 11.861304 19.565231999999998 11.950632 19.300032L12 19.153512 12 12.002904C12 5.151336000000001 11.998175999999999 4.846416 11.956248 4.712136C11.870952 4.438848 11.687736 4.226496 11.425896 4.097352000000001C11.290848 4.030776 11.243328 4.02048 11.041896000000001 4.01412C10.864776 4.008552 10.783272 4.01712 10.686888 4.05144M8.280432 8.460528C7.350096000000001 9.205608 6.5292959999999995 9.846864 6.4564319999999995 9.885528C6.383592 9.924192 6.25992 9.96756 6.181583999999999 9.981912000000001C6.088752 9.998928000000001 5.510352 10.008000000000001 4.519584 10.008000000000001L3 10.008000000000001 3 12L3 13.992 4.519584 13.992C5.510352 13.992 6.088752 14.001072 6.181583999999999 14.018088C6.25992 14.03244 6.383592 14.075807999999999 6.4564319999999995 14.114472C6.5292959999999995 14.153136000000002 7.350096000000001 14.794392 8.280432 15.539472C9.210792000000001 16.284552 9.980088 16.894584000000002 9.99 16.895088C9.999912 16.895592 10.008000000000001 14.692800000000002 10.008000000000001 12C10.008000000000001 9.3072 9.999912 7.104408 9.99 7.104912000000001C9.980088 7.105416000000001 9.210792000000001 7.715447999999999 8.280432 8.460528M15.222576 7.510128000000001C14.811744 7.650143999999999 14.544528000000001 8.024496 14.544528000000001 8.46C14.544528000000001 8.764104 14.624832000000001 8.940528 14.905032 9.252C15.330528000000001 9.725016 15.577344000000002 10.129824000000001 15.76836 10.668000000000001C15.92556 11.110944 15.989400000000002 11.495136 15.989664 12C15.990048 12.752496 15.805488 13.416936 15.412992 14.076C15.29736 14.270184 15.149496000000001 14.463047999999999 14.907024 14.736C14.640816000000001 15.035664 14.561832 15.200136000000002 14.548319999999999 15.482928C14.54088 15.638328 14.549064000000001 15.723144 14.580744 15.81936C14.776056 16.412376000000002 15.409536 16.688424 15.978216000000002 16.428312000000002C16.24908 16.3044 16.794912 15.675408000000001 17.155176 15.072000000000001C17.553648000000003 14.404560000000002 17.821224 13.660295999999999 17.94036 12.888C17.99424 12.538680000000001 18.013104000000002 11.811936 17.978112 11.432688C17.854416 10.09164 17.255760000000002 8.788344 16.324392 7.832592C16.141608 7.644984 16.006895999999998 7.5552 15.825984000000002 7.500311999999999C15.667152 7.45212 15.378936 7.456824000000001 15.222576 7.510128000000001" stroke="none" fill="currentColor" fill-rule="evenodd"></path>
</svg>
