<svg xmlns="http://www.w3.org/2000/svg" viewBox="0 0 24 24" version="1.1" id="Volume-1--Streamline-Lucide">
	<path d="M10.868376 4.712088C10.80696 4.729296 10.72596 4.763112 10.688376 4.787208000000001C10.650768 4.8113280000000005 9.609456 5.638968 8.374368 6.6264L6.128712 8.421744 4.2943679999999995 8.428872L2.46 8.436 2.328 8.498256C2.168472 8.57352 2.014608 8.722848 1.9395120000000001 8.87532L1.8840000000000001 8.988 1.8840000000000001 12L1.8840000000000001 15.012 1.9395120000000001 15.124680000000001C2.014608 15.277152000000001 2.168472 15.42648 2.328 15.501743999999999L2.46 15.564 4.294272 15.571128000000002L6.128544 15.578256000000001 8.396544 17.392368C9.64392 18.39012 10.713912 19.22916 10.774248 19.25688C10.942464 19.33416 11.203776000000001 19.327176 11.380583999999999 19.24068C11.529024 19.168056 11.656152 19.041888 11.740968 18.88308L11.796 18.78 11.802168 12.027384000000001L11.808336 5.274744 11.744928 5.133432C11.673048 4.973304000000001 11.520504 4.818672 11.368224 4.751568C11.231208 4.691231999999999 11.006184000000001 4.6734480000000005 10.868376 4.712088M8.569968 8.398416000000001C7.614048 9.163104 6.777048000000001 9.819192 6.709968 9.856392L6.588 9.924 4.986 9.930648L3.384 9.93732 3.384 12L3.384 14.062680000000002 4.986 14.069351999999999L6.588 14.076 6.709968 14.143608C6.777048000000001 14.180807999999999 7.614048 14.836896 8.569968 15.601584L10.308 16.991903999999998 10.31412 14.495952C10.31748 13.123175999999999 10.31748 10.876824000000001 10.31412 9.504048000000001L10.308 7.008096000000001 8.569968 8.398416000000001M15.176256000000002 7.945008C14.696280000000002 8.039928 14.426160000000001 8.583599999999999 14.64612 9.012C14.680008 9.078 14.782104000000002 9.213000000000001 14.873016 9.312C15.688775999999999 10.200504 16.051944000000002 11.32788 15.898920000000002 12.496775999999999C15.791616000000001 13.316496 15.487704 13.976832000000002 14.917895999999999 14.628336000000001C14.617944000000001 14.971272 14.58 15.048048 14.580024 15.312000000000001C14.580072000000001 15.563304 14.637744 15.693264 14.825327999999999 15.864696C14.989584 16.014816 15.138743999999999 16.06572 15.370704000000002 16.05084C15.600503999999999 16.036104 15.747288 15.954744 15.965976000000001 15.720863999999999C17.69028 13.877016 17.930976 11.113056 16.550232 9.012C16.237896 8.536752 15.820535999999999 8.080536 15.618696 7.993752C15.491712000000001 7.939176 15.308064 7.91892 15.176256000000002 7.945008" stroke="none" fill="currentColor" fill-rule="evenodd"></path>
</svg>
