<svg xmlns="http://www.w3.org/2000/svg" viewBox="0 0 24 24" version="1.1" id="Volume-X--Streamline-Lucide">
	<path d="M10.687536000000001 4.0512239999999995C10.619088 4.075632000000001 10.517664 4.125648 10.462152 4.162368C10.406640000000001 4.1991119999999995 9.307032 5.07312 8.018616 6.104592L5.676 7.98 3.732 7.992L1.788 8.004 1.647744 8.060568C1.469784 8.132352000000001 1.2899040000000002 8.279064 1.17276 8.448C0.997344 8.70096 1.008 8.471304 1.008 12C1.008 15.528696 0.997344 15.299040000000002 1.17276 15.552C1.2899040000000002 15.720936 1.469784 15.867648 1.647744 15.939432000000002L1.788 15.996 3.724152 16.002936L5.660304 16.009872 8.044152 17.917752C9.693192 19.237536 10.475952 19.849415999999998 10.583568000000001 19.902816C10.730544 19.975728 10.7538 19.979976 11.003568000000001 19.979712000000003C11.252016000000001 19.979448 11.277528 19.974768 11.425776 19.902504C11.625264000000001 19.805256 11.808576 19.614792 11.911176 19.398216L11.988 19.236 11.994168 12.061200000000001C12.000864 4.258224 12.009096000000001 4.7579519999999995 11.869632 4.509264C11.783808 4.356216 11.571072 4.16184 11.406072 4.085712C11.2212 4.00044 10.876536000000002 3.98388 10.687536000000001 4.0512239999999995M8.2506 8.480856000000001C7.109496 9.39348 6.4878 9.875376 6.406392 9.910416000000001C6.338832 9.939456 6.22248 9.973248 6.147792000000001 9.985488C6.073104 9.997704 5.334288 10.007784 4.506 10.007856L3 10.008000000000001 3 12L3 13.992 4.506 13.992144C5.334288 13.992216 6.073104 14.002296 6.147792000000001 14.014512C6.22248 14.026752 6.338832 14.060544 6.406392 14.089584C6.4878 14.124623999999999 7.109496 14.606520000000002 8.2506 15.519143999999999C9.197376 16.276344 9.980088 16.895880000000002 9.99 16.895927999999998C9.999912 16.895976 10.008000000000001 14.692800000000002 10.008000000000001 12C10.008000000000001 9.3072 9.999912 7.104024 9.99 7.1040719999999995C9.980088 7.10412 9.197376 7.723656000000001 8.2506 8.480856000000001M15.816 8.018448C15.629976000000001 8.050080000000001 15.448248000000001 8.14896 15.295608 8.301599999999999C15.151632 8.445576 15.09696 8.53764 15.038640000000001 8.734368C14.968608 8.970576 14.999712000000002 9.241704 15.125568 9.492C15.155448 9.551447999999999 15.631488000000001 10.047144 16.375944 10.794L17.578056 12 16.375944 13.206C15.631488000000001 13.952856 15.155448 14.448552000000001 15.125568 14.508000000000001C14.964024 14.829312000000002 14.962392 15.170376000000001 15.120936 15.48168C15.185640000000001 15.60876 15.40884 15.820512 15.555336 15.893880000000001C15.725760000000001 15.979199999999999 15.965328 16.01592 16.153631999999998 15.985584000000001C16.478328 15.933312 16.464408000000002 15.944904 17.784 14.627424L18.996 13.417392 20.208000000000002 14.623704000000002C21.529104 15.938616000000001 21.522336 15.933024 21.846192000000002 15.983640000000001C22.241208 16.045368 22.608888 15.880560000000001 22.834512 15.540672C22.948680000000003 15.368664 22.991471999999998 15.221231999999999 22.991471999999998 15C22.991471999999998 14.794272 22.951992 14.642736000000001 22.859280000000002 14.492568C22.823784 14.435064 22.258752 13.850688 21.603696 13.194L20.412648 12 21.603696 10.806000000000001C22.258752 10.149312 22.823784 9.564936 22.859280000000002 9.507432C22.951992 9.357264 22.991471999999998 9.205728 22.991471999999998 9C22.991471999999998 8.778768 22.948680000000003 8.631336000000001 22.834512 8.459328C22.608888 8.11944 22.241208 7.954632 21.846192000000002 8.01636C21.522432000000002 8.066976 21.52908 8.061456 20.207472 9.376584L18.994944 10.583136 17.855472 9.441216C17.22876 8.81316 16.664712 8.257944 16.602048 8.207400000000002C16.398024 8.042832 16.0974 7.970568000000001 15.816 8.018448" stroke="none" fill="currentColor" fill-rule="evenodd"></path>
</svg>
